# xmcd
#
# Track frame offsets: 
#        150
#        13223
#        27250
#        40628
#        54235
#        67003
#        80171
#        94709
#        108038
#        121643
#        134774
#        148934
#        163295
#        176943
#
# Disc length: 2533 seconds
#
# Revision: 0
# Processed by: cddbd v1.5.2PL0 Copyright (c) Steve Scherf et al.
# Submitted via: ExactAudioCopy v0.99pb5
#
DISCID=c509e30e
DTITLE=สุรพล สมบัติเจริญ - รักริงโง
DYEAR=1900
DGENRE=Country
TTITLE0=รักริงโง
TTITLE1=อาทิตย์อุทัยรำลึก
TTITLE2=ป่าซาง
TTITLE3=มนต์รักป่าซาง
TTITLE4=กว๊านพะเยา
TTITLE5=เสน่ห์สาวเวียงพิงค์
TTITLE6=มนต์รักจากอีสาน
TTITLE7=คนใต้ใจซื่อ
TTITLE8=สาวเหนือเบื่อรัก (ผ่องศรี วรนุช)
TTITLE9=เบิ่งโขง
TTITLE10=ลาวตีเขี'
TTITLE11=เขมรไล่ควาย
TTITLE12=ควายหาย
TTITLE13=อุทยานผลไม้
EXTD=
EXTT0=
EXTT1=
EXTT2=
EXTT3=
EXTT4=
EXTT5=
EXTT6=
EXTT7=
EXTT8=
EXTT9=
EXTT10=
EXTT11=
EXTT12=
EXTT13=
PLAYORDER=
